<?xml version="1.0"?>
<svg width="256" height="256" xmlns="http://www.w3.org/2000/svg" xmlns:svg="http://www.w3.org/2000/svg" version="1.1" xml:space="preserve">

 <g class="layer">
  <title>Layer 1</title>
  <g fill="green" fill-rule="nonzero" id="svg_1" stroke-miterlimit="10" stroke-width="0" transform="matrix(2.81 0 0 2.81 0 0)">
   <path d="m30.99,90.09c-2.79,0 -5.4,-1.36 -7,-3.64l-21.42,-30.6c-2.97,-4.24 -2.72,-9.97 0.62,-13.93c2.3,-2.75 5.68,-4.23 9.26,-4.07c3.59,0.16 6.82,1.93 8.88,4.87l10.46,14.95c0.14,0.19 0.33,0.23 0.43,0.23c0.11,0.02 0.3,-0.02 0.45,-0.2l43.67,-53.84c1.64,-2.02 4.15,-3.12 6.77,-2.93c2.59,0.19 4.94,1.64 6.27,3.88l0,0c1.6,2.69 1.47,6.08 -0.32,8.65l-44.92,64.15l-6.15,8.82c-1.59,2.29 -4.2,3.65 -6.99,3.66c0,0 -0.01,0 -0.01,0zm-19.05,-48.25c-2.21,0 -4.26,0.95 -5.69,2.65c-2.17,2.58 -2.33,6.31 -0.4,9.07l21.42,30.59c0.86,1.23 2.22,1.94 3.72,1.94c0,0 0,0 0,0c1.51,0 2.86,-0.71 3.72,-1.95l6.15,-8.82l44.92,-64.16c0.9,-1.27 0.96,-2.96 0.16,-4.3l0,0c-0.67,-1.14 -1.81,-1.84 -3.12,-1.94c-1.31,-0.09 -2.54,0.44 -3.37,1.46l-43.67,53.84c-0.91,1.12 -2.27,1.73 -3.7,1.68c-1.44,-0.05 -2.74,-0.76 -3.57,-1.94l-10.46,-14.95c-1.34,-1.91 -3.44,-3.06 -5.77,-3.16c-0.12,-0.01 -0.23,-0.01 -0.34,-0.01z" fill="#00ff7f" fill-rule="nonzero" id="svg_2" stroke-miterlimit="10"/>
  </g>
 </g>
</svg>