<?xml version="1.0" standalone="no"?>
<!DOCTYPE svg PUBLIC "-//W3C//DTD SVG 20010904//EN"
 "http://www.w3.org/TR/2001/REC-SVG-20010904/DTD/svg10.dtd">
<svg version="1.0" xmlns="http://www.w3.org/2000/svg"
 width="1280.000000pt" height="1210.000000pt" viewBox="0 0 1280.000000 1210.000000"
 preserveAspectRatio="xMidYMid meet">

<g transform="translate(0.000000,1210.000000) scale(0.100000,-0.100000)"
fill="#ff0000" stroke="none">
<path d="M2175 11529 c-27 -4 -93 -15 -145 -22 -88 -14 -163 -34 -201 -56 -9
-5 -33 -13 -52 -16 -20 -4 -41 -13 -48 -21 -6 -8 -18 -14 -26 -14 -16 0 -90
-38 -111 -57 -7 -7 -18 -13 -23 -13 -13 0 -103 -64 -174 -123 -114 -96 -227
-229 -304 -360 -28 -48 -51 -93 -51 -100 0 -7 -9 -25 -20 -42 -11 -16 -20 -38
-20 -48 0 -11 -6 -31 -14 -45 -26 -52 -56 -158 -56 -197 0 -23 -7 -67 -15 -98
-17 -67 -20 -261 -4 -322 6 -22 14 -77 19 -123 5 -46 13 -88 18 -95 5 -7 19
-46 32 -87 13 -41 31 -89 41 -106 11 -17 19 -36 19 -42 0 -10 69 -132 80 -142
3 -3 22 -30 43 -61 20 -31 66 -88 102 -126 100 -108 3116 -3120 3148 -3143 38
-30 37 -70 -5 -105 -38 -31 -3060 -3048 -3128 -3122 -80 -87 -105 -120 -145
-185 -5 -9 -25 -40 -43 -70 -43 -70 -48 -78 -61 -108 -6 -14 -15 -32 -20 -40
-5 -8 -20 -49 -32 -90 -12 -41 -26 -80 -31 -87 -5 -7 -13 -49 -18 -95 -4 -46
-13 -96 -19 -111 -16 -42 -14 -271 4 -337 8 -30 15 -74 15 -96 0 -42 43 -191
61 -208 5 -6 9 -18 9 -29 0 -15 18 -56 52 -117 4 -8 12 -24 17 -36 54 -122
257 -362 375 -441 23 -15 58 -40 78 -56 45 -34 220 -126 263 -137 17 -5 62
-20 100 -35 39 -14 104 -30 145 -35 41 -5 102 -13 135 -19 72 -13 172 -13 240
-1 28 6 86 14 130 19 82 10 280 69 318 96 12 8 27 15 34 15 18 0 179 96 233
138 95 76 339 312 812 789 75 76 604 605 1175 1175 571 571 1096 1096 1167
1168 70 71 135 130 144 130 9 0 727 -711 1596 -1580 870 -869 1597 -1594 1616
-1611 37 -33 59 -50 130 -102 52 -38 244 -141 281 -150 39 -9 123 -38 143 -49
10 -5 55 -14 100 -18 45 -5 122 -14 173 -21 74 -10 108 -10 180 0 48 7 120 17
158 21 175 20 467 152 620 280 116 98 252 251 309 350 11 19 23 37 26 40 11
11 50 90 50 103 0 8 6 20 14 26 8 7 17 27 20 46 4 19 13 47 21 62 8 15 15 37
15 48 0 11 7 29 15 39 8 11 15 41 15 66 0 25 7 73 16 105 23 85 24 310 1 384
-9 30 -17 77 -17 105 -1 28 -7 62 -15 76 -8 14 -14 34 -15 45 0 11 -6 32 -14
47 -8 15 -17 40 -21 57 -3 16 -13 35 -21 42 -8 6 -14 18 -14 25 0 35 -127 237
-204 324 -17 19 -743 747 -1613 1618 -870 871 -1584 1589 -1586 1596 -7 18 23
62 64 91 31 23 2779 2765 3009 3002 138 143 230 249 230 267 0 5 45 76 81 128
11 15 19 33 19 40 0 8 9 31 20 53 11 22 20 46 20 55 0 8 7 24 15 34 8 11 15
31 15 45 0 14 7 35 15 45 8 11 15 38 15 60 0 23 8 70 17 106 20 82 23 339 3
385 -7 17 -16 64 -20 105 -4 41 -17 100 -30 130 -12 30 -27 71 -33 90 -6 19
-17 42 -24 51 -7 8 -13 23 -13 31 0 16 -39 88 -95 173 -90 139 -198 254 -330
352 -79 59 -218 143 -236 143 -5 0 -26 9 -46 20 -21 11 -43 20 -50 20 -7 0
-27 6 -45 14 -91 38 -145 49 -365 78 -72 9 -111 9 -175 0 -46 -7 -121 -17
-168 -23 -47 -6 -94 -14 -105 -19 -31 -14 -106 -40 -150 -52 -22 -6 -47 -17
-56 -24 -8 -8 -21 -14 -28 -14 -25 0 -215 -118 -276 -172 -16 -14 -41 -36 -55
-47 -14 -12 -736 -732 -1606 -1601 -869 -869 -1588 -1580 -1597 -1580 -10 0
-731 715 -1605 1588 -873 873 -1602 1599 -1620 1612 -19 14 -41 32 -50 41 -48
46 -237 159 -266 159 -7 0 -17 5 -23 11 -22 22 -208 81 -298 95 -199 31 -222
33 -275 32 -30 0 -77 -4 -105 -9z m296 -623 c14 -7 43 -16 65 -20 66 -12 179
-80 284 -171 19 -16 791 -785 1716 -1709 1111 -1109 1699 -1690 1735 -1712 51
-32 59 -34 147 -34 83 0 99 3 140 27 31 17 630 608 1742 1719 932 931 1722
1715 1754 1743 67 58 184 118 266 137 30 7 73 17 95 23 99 26 298 4 430 -47
83 -32 179 -96 249 -166 65 -64 126 -141 126 -159 0 -3 13 -28 28 -54 16 -27
32 -67 36 -88 4 -22 12 -45 17 -51 16 -20 30 -174 23 -259 -3 -44 -15 -105
-25 -135 -11 -30 -19 -62 -19 -72 0 -9 -16 -44 -35 -77 -19 -32 -35 -64 -35
-70 0 -6 -3 -11 -8 -11 -4 0 -31 -30 -59 -67 -29 -38 -806 -822 -1727 -1743
-922 -921 -1694 -1700 -1716 -1730 l-41 -55 3 -110 3 -110 42 -55 c23 -30 791
-804 1708 -1720 986 -985 1694 -1700 1734 -1750 103 -133 164 -277 175 -415 6
-80 -8 -241 -23 -259 -6 -7 -13 -32 -17 -56 -4 -25 -20 -66 -36 -93 -15 -26
-28 -51 -28 -56 0 -4 -8 -16 -18 -27 -10 -10 -37 -45 -61 -77 -69 -91 -283
-237 -348 -237 -11 0 -53 -9 -94 -20 -82 -22 -210 -26 -274 -9 -22 6 -65 15
-95 21 -89 16 -170 55 -265 127 -33 25 -819 804 -1746 1732 -927 927 -1708
1703 -1734 1725 l-48 39 -116 0 -116 0 -55 -42 c-30 -23 -804 -791 -1720
-1708 -916 -916 -1694 -1689 -1730 -1717 -36 -29 -70 -57 -75 -63 -18 -21
-158 -82 -205 -89 -25 -4 -63 -13 -85 -21 -53 -19 -231 -20 -287 -1 -24 8 -63
17 -88 21 -25 4 -49 11 -55 15 -5 4 -25 12 -43 18 -52 18 -163 96 -227 159
-55 56 -89 101 -127 171 -50 90 -58 109 -58 130 0 13 -8 37 -17 55 -25 47 -25
327 0 374 9 18 17 42 17 53 0 24 46 126 61 135 5 4 9 13 9 22 0 9 25 46 56 82
30 36 815 827 1743 1756 928 930 1703 1710 1722 1735 l34 44 0 112 c0 93 -3
115 -17 131 -10 11 -18 24 -18 30 0 6 -768 780 -1707 1720 -940 940 -1722
1724 -1738 1743 -17 19 -39 49 -50 65 -33 51 -95 179 -95 198 0 10 -8 32 -17
50 -25 48 -25 347 0 375 9 10 17 33 17 50 0 31 42 126 61 138 5 3 9 12 9 20 0
18 101 146 148 187 76 68 222 157 259 157 10 1 41 9 68 20 64 24 334 28 376 6z"/>
</g>
</svg>
